<?xml version="1.0" encoding="UTF-8"?>
<!-- Generator: Adobe Illustrator 24.2.1, SVG Export Plug-In . SVG Version: 6.00 Build 0)  -->
<svg xmlns:xlink="http://www.w3.org/1999/xlink" xmlns="http://www.w3.org/2000/svg" version="1.1" id="Ebene_1" x="0px"
     y="0px" viewBox="0 0 283.5 85" style="enable-background:new 0 0 283.5 85;" xml:space="preserve">
<style type="text/css">
	.st0{fill:#005189;}
	.st1{fill:#F9B232;}
	.st2{fill:#E63229;}
	.st3{fill:#85BC22;}
	.st4{fill:#1A1A18;}
</style>
    <g id="Ebene_2_1_">
	<path class="st0"
          d="M126.6,34.8c0.1-0.2,0.2-0.3,0.4-0.3h5.8c0.2,0,0.3,0.1,0.3,0.3c0,0,0,0,0,0v22.6c0,0.2-0.1,0.3-0.3,0.3   c0,0,0,0,0,0h-3.9c-0.2,0-0.3-0.1-0.3-0.3c0,0,0,0,0,0l0.2-17.5c0-0.3,0-0.4-0.2-0.4s-0.2,0.1-0.3,0.4l-3.8,12   c-0.2,0.5-0.2,0.6-0.6,0.6h-3.2c-0.4,0-0.5,0-0.7-0.5l-3.5-12.1c-0.1-0.4-0.2-0.4-0.3-0.4c-0.2,0-0.2,0.1-0.2,0.5l0.2,17.4   c0,0.2-0.1,0.3-0.3,0.3c0,0,0,0,0,0h-3.8c-0.2,0-0.3-0.1-0.3-0.3c0,0,0,0,0,0V34.8c0-0.2,0.1-0.3,0.3-0.3c0,0,0,0,0,0h6.1   c0.2,0,0.3,0.2,0.4,0.3l3.7,12.6c0.1,0.4,0.2,0.4,0.3,0.4c0.2,0,0.2-0.1,0.3-0.4L126.6,34.8z"></path>
        <path class="st0"
              d="M142.3,39.4c0.2,0,0.3,0.1,0.3,0.3c0,0,0,0,0,0v11.4c0,2.6,0.7,3.4,3.5,3.4c0.8,0,1.6-0.1,2.3-0.2   c0.2-0.1,0.3-0.1,0.3-0.3V39.8c0-0.2,0.1-0.3,0.3-0.3c0,0,0,0,0,0h3.8c0.2,0,0.3,0.1,0.3,0.3c0,0,0,0,0,0V57c0,0.2-0.1,0.3-0.3,0.3   c-2.3,0.4-4.6,0.6-6.9,0.7c-6.1,0-7.9-1.6-7.9-6.6V39.7c0-0.2,0.1-0.3,0.3-0.3c0,0,0,0,0,0L142.3,39.4z M140.8,36.2   c-0.2,0-0.3-0.1-0.3-0.3c0,0,0,0,0,0v-3c0-0.2,0.1-0.3,0.3-0.3c0,0,0,0,0,0h3.2c0.2,0,0.3,0.1,0.3,0.3c0,0,0,0,0,0.1v3   c0,0.2-0.1,0.3-0.3,0.3c0,0,0,0-0.1,0H140.8z M147.8,36.2c-0.2,0-0.3-0.1-0.3-0.3c0,0,0,0,0,0v-3c0-0.2,0.1-0.3,0.3-0.3   c0,0,0,0,0,0h3.2c0.2,0,0.3,0.1,0.3,0.3c0,0,0,0,0,0v3c0,0.2-0.1,0.3-0.3,0.3c0,0,0,0,0,0H147.8z"></path>
        <path class="st0"
              d="M169.1,57.7c-0.2,0-0.3-0.1-0.3-0.3c0,0,0,0,0,0V45.8c0-2.6-0.6-3.3-3.3-3.3c-0.8,0-1.6,0-2.4,0.2   c-0.2,0.1-0.3,0.1-0.3,0.3v14.3c0,0.2-0.1,0.3-0.3,0.3c0,0,0,0,0,0h-3.8c-0.2,0-0.3-0.1-0.3-0.3c0,0,0,0,0,0V40.1   c0-0.2,0.1-0.3,0.3-0.3c2.4-0.4,4.7-0.6,7.1-0.7c6.1,0,7.7,1.5,7.7,6.5v11.8c0,0.2-0.1,0.3-0.3,0.3c0,0,0,0,0,0L169.1,57.7z"></path>
        <path class="st0"
              d="M184.6,58.1c-5.9,0-7.6-2.7-7.6-9.4c0-7.3,2.2-9.6,6.7-9.6c1,0,1.9,0.1,2.9,0.3c0.1,0,0.1,0.1,0.1,0.2l-0.1,3   c0,0.1-0.1,0.2-0.2,0.1c-0.7-0.2-1.5-0.2-2.2-0.2c-1.9,0-2.6,1.3-2.6,6.2c0,4.5,0.8,6.1,3.7,6.1c1.3,0,2.6-0.1,3.8-0.4   c0.3-0.1,0.4-0.2,0.4-0.4v-21c0-0.2,0.1-0.3,0.3-0.3c0,0,0,0,0,0h3.8c0.2,0,0.3,0.1,0.3,0.3c0,0,0,0,0,0v6.3c0,0.2,0.1,0.3,0.4,0.3   c1.3-0.2,2.5-0.4,3.8-0.4c4.7,0,6.4,1.4,6.4,6.4v11.9c0,0.2-0.1,0.3-0.3,0.3c0,0,0,0,0,0h-3.8c-0.2,0-0.3-0.1-0.3-0.3c0,0,0,0,0,0   V45.9c0-2.6-0.6-3.4-3.2-3.4c-0.9,0-1.7,0-2.6,0.2c-0.2,0.1-0.3,0.1-0.3,0.3v13.3c0,0.2-0.1,0.3-0.8,0.5   C190.4,57.7,187.5,58.1,184.6,58.1z"></path>
        <path class="st0"
              d="M217.4,58.1c-6.7,0-8.9-3.7-8.9-9.5c0-6.1,2.6-9.6,8.2-9.6c5.6,0,7.2,3,7.2,7.9c0,2.3-0.1,2.9-0.9,2.9h-9.7   c-0.2,0-0.2,0.1-0.2,0.2c0,3.7,1.8,4.6,5,4.6c1.6,0,3.3-0.3,4.9-0.8c0.2,0,0.3,0,0.4,0.2l0.2,2.7c0,0.1-0.1,0.3-0.2,0.3   C221.4,57.8,219.4,58.2,217.4,58.1z M213.3,47.2h6.4c0.3,0,0.4-0.1,0.4-1c0-2.6-0.7-4-3.3-4c-3.1,0-3.7,2.1-3.7,4.7   C213,47.1,213.1,47.2,213.3,47.2L213.3,47.2z"></path>
        <path class="st0"
              d="M239.3,57.7c-0.2,0-0.3-0.1-0.3-0.3c0,0,0,0,0,0V45.8c0-2.6-0.6-3.3-3.3-3.3c-0.8,0-1.6,0-2.4,0.2   c-0.2,0.1-0.3,0.1-0.3,0.3v14.3c0,0.2-0.1,0.3-0.3,0.3c0,0,0,0,0,0h-3.8c-0.2,0-0.3-0.1-0.3-0.3c0,0,0,0,0,0V40.1   c0-0.2,0.1-0.3,0.3-0.3c2.4-0.4,4.7-0.6,7.1-0.7c6.1,0,7.7,1.5,7.7,6.5v11.8c0,0.2-0.1,0.3-0.3,0.3c0,0,0,0,0,0L239.3,57.7z"></path>
        <path class="st0"
              d="M118.8,6.6c-2.1,0-2.8,0.7-2.8,2.4c0,1.4,0.5,2,4.1,4.5c2.9,2,4.4,3.5,4.4,6.9c0,4.4-2.3,6.2-6.7,6.2   c-2.2,0-4.4-0.2-6.5-0.6c-0.2,0-0.3-0.1-0.3-0.3l0.2-3.1c0-0.1,0.1-0.2,0.2-0.2c0,0,0,0,0,0c1.8,0.3,3.5,0.5,5.3,0.5   c2,0,2.9-0.6,2.9-2.5c0-1.3-0.1-1.9-4.9-5.4c-2.9-2.2-3.6-3.8-3.6-6.2c0-4.6,2.6-5.9,7.6-5.9c1.8,0,3.6,0.2,5.3,0.7   c0.1,0.1,0.2,0.2,0.2,0.3l-0.2,3c0,0.1-0.1,0.2-0.2,0.2c0,0,0,0,0,0C122.2,6.7,120.5,6.6,118.8,6.6z"></path>
        <path class="st0"
              d="M132.9,26.7c-2.8,0-4.2-1.3-4.2-3.8V11.7c0-0.1-0.1-0.2-0.2-0.2c0,0,0,0,0,0h-2.4c-0.2,0-0.3-0.1-0.3-0.3   c0,0,0,0,0,0V8.4c0-0.2,0.1-0.3,0.3-0.3c0,0,0,0,0,0h2.4c0.1,0,0.2-0.1,0.2-0.2c0,0,0,0,0,0V3.5c0-0.2,0.1-0.3,0.3-0.3c0,0,0,0,0,0   h3.8c0.2,0,0.3,0.1,0.3,0.3c0,0,0,0,0,0v4.3c0,0.1,0.1,0.2,0.2,0.2c0,0,0,0,0,0h2.9c0.2,0,0.3,0.1,0.3,0.3c0,0,0,0,0,0v2.8   c0,0.2-0.1,0.3-0.3,0.3c0,0,0,0,0,0h-2.9c-0.1,0-0.2,0.1-0.2,0.2c0,0,0,0,0,0v10.2c0,1.1,0.4,1.4,1.5,1.4h1c0.2,0,0.3,0.1,0.3,0.3   c0,0,0,0.1,0,0.1l-0.1,2.3c0,0.2-0.1,0.4-0.3,0.4C134.8,26.6,133.8,26.7,132.9,26.7z"></path>
        <path class="st0"
              d="M140.6,5c-0.2,0-0.3-0.1-0.3-0.3c0,0,0,0,0,0V1.2c0-0.2,0.1-0.3,0.3-0.3c0,0,0,0,0,0h4c0.2,0,0.3,0.1,0.3,0.3   c0,0,0,0,0,0v3.4c0,0.2-0.1,0.3-0.3,0.3c0,0,0,0,0,0H140.6z M140.7,26.3c-0.2,0-0.3-0.1-0.3-0.3c0,0,0,0,0,0V8.4   c0-0.2,0.1-0.3,0.3-0.3c0,0,0,0,0,0h3.8c0.2,0,0.3,0.1,0.3,0.3c0,0,0,0,0,0V26c0,0.2-0.1,0.3-0.3,0.3c0,0,0,0,0,0L140.7,26.3z"></path>
        <path class="st0"
              d="M178.5,8c0.2,0,0.3,0.1,0.3,0.3c0,0,0,0,0,0v11.4c0,2.6,0.7,3.4,3.5,3.4c0.8,0,1.6-0.1,2.3-0.2   c0.2-0.1,0.3-0.1,0.3-0.3V8.4c0-0.2,0.1-0.3,0.3-0.3c0,0,0,0,0,0h3.8c0.2,0,0.3,0.1,0.3,0.3c0,0,0,0,0,0v17.3   c0,0.2-0.1,0.3-0.3,0.3c-2.3,0.4-4.6,0.6-6.9,0.7c-6.1,0-7.9-1.6-7.9-6.6V8.3c0-0.2,0.1-0.3,0.3-0.3c0,0,0,0,0,0L178.5,8z"></path>
        <path class="st0"
              d="M205.5,26.3c-0.2,0-0.3-0.1-0.3-0.3c0,0,0,0,0,0V14.4c0-2.6-0.6-3.3-3.3-3.3c-0.8,0-1.6,0-2.4,0.2   c-0.2,0.1-0.3,0.1-0.3,0.3V26c0,0.2-0.1,0.3-0.3,0.3c0,0,0,0,0,0h-3.8c-0.2,0-0.3-0.1-0.3-0.3c0,0,0,0,0,0V8.7   c0-0.2,0.1-0.3,0.3-0.3c2.4-0.4,4.7-0.6,7.1-0.7c6.1,0,7.7,1.5,7.7,6.5V26c0,0.2-0.1,0.3-0.3,0.3c0,0,0,0,0,0H205.5z"></path>
        <path class="st0"
              d="M229.2,25.9c0,5.4-3.3,6.6-8.3,6.6c-1.5,0-5.1-0.4-6.3-0.9c-0.2-0.1-0.2-0.2-0.2-0.3l0.4-2.7   c0-0.1,0.1-0.2,0.3-0.2c0,0,0,0,0.1,0c1.8,0.4,3.5,0.6,5.3,0.7c4.1,0,4.3-1.1,4.3-3.8c0-0.2,0-0.2-0.2-0.2c-1,0.1-2,0.1-3,0.1   c-5.8,0-8-1.8-8-8.4s2.4-9.2,8.9-9.2c2,0,5.1,0.2,6.5,0.7c0.2,0.1,0.3,0.2,0.3,0.3L229.2,25.9z M224.5,22c0.2-0.1,0.2-0.1,0.2-0.3   V11.6c0-0.1-0.1-0.3-0.2-0.3c-0.7-0.2-1.5-0.3-2.2-0.3c-3.2,0-4.1,0.9-4.1,5.6s0.6,5.5,4.2,5.5C223.2,22.2,223.9,22.1,224.5,22z"></path>
        <path class="st0"
              d="M241.6,26.3c-0.2,0-0.3-0.1-0.3-0.3c0,0,0,0,0,0V3.4c0-0.2,0.1-0.3,0.3-0.3c0,0,0,0,0,0h3.9   c0.2,0,0.3,0.1,0.3,0.3c0,0,0,0,0,0V26c0,0.2-0.1,0.3-0.3,0.3c0,0,0,0,0,0H241.6z"></path>
        <path class="st0"
              d="M259.5,26.7c-6.7,0-9.1-4.2-9.1-11.8c0-7.5,2.3-12.2,9.1-12.2c1.6,0,3.1,0.1,4.7,0.6c0.1,0.1,0.2,0.1,0.2,0.3   l-0.2,3.3c0,0.1-0.2,0.2-0.3,0.2c0,0,0,0,0,0c-1.2-0.3-2.4-0.5-3.7-0.5c-4,0-4.9,2.1-4.9,8.4c0,5.9,0.9,7.9,4.9,7.9   c1.2,0,2.4-0.2,3.6-0.4c0.2,0,0.4,0,0.5,0.2l0.2,3c0,0.2,0,0.4-0.1,0.4C262.8,26.5,261.2,26.7,259.5,26.7z"></path>
        <path class="st0"
              d="M275.7,3c4.7,0,7.8,1.7,7.8,7.2c0,6.5-3.5,7.8-8.2,7.8h-1.6c-0.4,0-0.5,0.1-0.5,0.2V26c0,0.2-0.1,0.3-0.3,0.3   c0,0,0,0,0,0h-3.9c-0.2,0-0.3-0.1-0.3-0.3c0,0,0,0,0,0V3.4c0-0.2,0.1-0.3,0.3-0.3c0,0,0,0,0,0H275.7z M275.1,14.6   c2.8,0,3.9-0.8,3.9-4.2c0-3.2-1.1-4-3.8-4h-1.7c-0.2,0-0.2,0.1-0.2,0.2v7.8c0,0.2,0,0.2,0.2,0.2L275.1,14.6z"></path>
        <path class="st0"
              d="M170.5,8h-2.9c-0.1,0-0.2-0.1-0.2-0.2c0,0,0,0,0,0V3.5c0-0.2-0.1-0.3-0.3-0.3c0,0,0,0,0,0h-3.8   c-0.2,0-0.3,0.1-0.3,0.3c0,0,0,0,0,0v4.3c0,0.1-0.1,0.2-0.2,0.2c0,0,0,0,0,0h-6.4C156.1,8,156,8,156,7.9c0,0,0,0,0,0V6.5   c-0.1-1.1,0.7-2.1,1.8-2.2c0.1,0,0.3,0,0.4,0c0.6,0,1.2,0.1,1.8,0.2c0.2,0,0.3,0,0.4-0.2l0.2-2.4c0-0.2-0.1-0.4-0.2-0.4   c-1-0.2-1.9-0.3-2.9-0.3c-5,0-6,2.7-6,5.1v1.5c0,0.1-0.1,0.2-0.2,0.2c0,0,0,0,0,0h-2.4c-0.2,0-0.3,0.1-0.3,0.3c0,0,0,0,0,0v2.8   c0,0.2,0.1,0.3,0.3,0.3c0,0,0,0,0,0h2.4c0.1,0,0.2,0.1,0.2,0.2c0,0,0,0,0,0V26c0,0.2,0.1,0.3,0.3,0.3c0,0,0,0,0,0h3.9   c0.2,0,0.3-0.1,0.3-0.3c0,0,0,0,0,0V11.7c0-0.1,0.1-0.2,0.2-0.2c0,0,0,0,0,0h6.4c0.1,0,0.2,0.1,0.2,0.2c0,0,0,0,0,0v11.2   c0,2.5,1.4,3.8,4.2,3.8c0.9,0,1.9-0.1,2.8-0.3c0.2-0.1,0.3-0.2,0.3-0.4l0.1-2.3c0-0.2-0.1-0.3-0.3-0.3c0,0-0.1,0-0.1,0h-1.1   c-1.1,0-1.5-0.3-1.5-1.4V11.7c0-0.1,0.1-0.2,0.2-0.2c0,0,0,0,0,0h2.9c0.2,0,0.3-0.1,0.3-0.3c0,0,0,0,0,0V8.4   C170.8,8.2,170.7,8,170.5,8C170.5,8,170.5,8,170.5,8z"></path>
        <path class="st1"
              d="M34.6,62.4l-6.2-9.5l5.8-8.3c0.9-1.3,1-3.1,0.2-4.5l-7.5-12.9c-1.3-1.9-3.9-2.5-5.8-1.2   c-1.8,1.2-2.4,3.5-1.5,5.4l6.1,10.6l-5.9,8.5c-1,1.4-1,3.2-0.1,4.7l7.8,11.9c1.4,1.9,4,2.3,5.9,0.9C35.1,66.6,35.7,64.2,34.6,62.4"></path>
        <path class="st2"
              d="M53.3,63.6l-3.9-15.4L56.8,36c0.6-0.9,0.7-2,0.5-3.1l-4.2-18.2c-0.5-2.2-2.8-3.6-5-3.1c-2.3,0.5-3.7,2.8-3.1,5   l3.8,16.5l-7.5,12.2c-0.6,1-0.7,2.1-0.5,3.2l4.4,17.1c0.6,2.2,2.9,3.6,5.1,3C52.5,68.1,53.9,65.9,53.3,63.6"></path>
        <path class="st0"
              d="M81.9,65.2c-1.1,1.9-2.7,3.6-4.6,4.8c-0.8,0.5-1.6,1-2.4,1.4c-0.7,0.4-1.4,0.7-2.1,1.1l0.3-0.2   c-3,1.4-6.5,2.3-11.2,2.9c-6.1,0.6-12.3,0.9-18.4,0.8c-10.9,0-20.7-1.3-27.4-3.2c-2.7-0.7-5.3-1.7-7.6-3.2C7.9,69.5,7.4,69,7,68.5   c-0.1-0.1-0.1-0.2-0.2-0.3v0H6.7h0.1l0,0H6.7h0.1v0c0.1-0.2,0.2-0.3,0.3-0.4c0.5-0.5,1-0.9,1.7-1.3c1-0.6,2-1.1,3.1-1.5   c1.6-0.7,2.4-2.6,1.7-4.2c-0.7-1.5-2.4-2.3-4-1.7c-2.2,0.8-4.3,2-6.1,3.4c-0.8,0.7-1.5,1.5-2.1,2.4c-0.6,1-0.9,2.1-0.9,3.3   c0,0.8,0.1,1.5,0.4,2.2c0.5,1.2,1.2,2.3,2.2,3.2c1.9,1.7,4.1,3,6.5,3.8c4.7,1.8,9.7,3.1,14.7,3.8c6.4,0.9,12.9,1.4,19.4,1.4   c6.4,0.1,12.8-0.2,19.2-0.9c4.5-0.5,9-1.6,13.1-3.5c0.1-0.1,0.2-0.1,0.3-0.2c0.3-0.2,1-0.5,1.8-1c1.6-0.9,3.2-1.9,4.6-3   c1.9-1.6,3.5-3.5,4.8-5.6c0.9-1.5,0.4-3.5-1.1-4.4c-1.5-0.9-3.5-0.4-4.4,1.1C81.9,65.2,81.9,65.2,81.9,65.2"></path>
        <path class="st3"
              d="M72,64.7L72,6c0.1-2.3-1.7-4.2-4-4.3c-2.3-0.1-4.3,1.7-4.4,4c0,0.1,0,0.2,0,0.3l-0.1,58.7   c-0.1,2.3,1.7,4.2,4,4.3c2.3,0.1,4.3-1.7,4.4-4C71.9,64.9,71.9,64.8,72,64.7"></path>
        <path class="st4"
              d="M115.7,69.4c2.4,0,4,0.7,4,3.1c0,1.7-0.7,2.2-1.4,2.6c-0.2,0.1-0.2,0.1-0.2,0.2c0,0.1,0,0.1,0.1,0.1   c0.9,0.4,1.8,1.1,1.8,3c0,2.5-1.8,3.3-3.7,3.3h-4.5c-0.1,0-0.2-0.1-0.2-0.2c0,0,0,0,0,0v-12c0-0.1,0.1-0.2,0.2-0.2c0,0,0,0,0,0   H115.7z M115.4,74.8c1.2-0.1,1.9-0.5,1.9-1.9c0-1.2-0.4-1.6-1.9-1.6h-1.2c-0.1,0-0.1,0-0.1,0.1c0,0,0,0,0,0v3.3   c0,0.1,0.1,0.1,0.2,0.1L115.4,74.8z M115.2,80c1.8,0,2.3-0.3,2.3-1.8s-0.9-1.9-2.2-1.9h-1.1c-0.1,0-0.2,0-0.2,0.2v3.4   c0,0.1,0,0.1,0.1,0.1L115.2,80z"></path>
        <path class="st4"
              d="M126.6,82c-3.6,0-4.7-1.9-4.7-5c0-3.2,1.4-5.1,4.4-5.1s3.8,1.6,3.8,4.2c0,1.2-0.1,1.5-0.5,1.5h-5.2   c-0.1,0-0.1,0-0.1,0.1c0,1.9,0.9,2.4,2.6,2.4c0.9,0,1.7-0.2,2.6-0.4c0.1,0,0.2,0,0.2,0.1l0.1,1.4c0,0.1,0,0.1-0.1,0.2   C128.8,81.8,127.7,82,126.6,82z M124.4,76.2h3.4c0.1,0,0.2,0,0.2-0.5c0-1.4-0.3-2.1-1.7-2.1c-1.6,0-2,1.1-2,2.5   C124.3,76.1,124.3,76.2,124.4,76.2z"></path>
        <path class="st4"
              d="M136,73.8c-0.4,0-0.7,0-1.1,0.1c-0.1,0-0.1,0.1-0.1,0.2v7.5c0,0.1,0,0.2-0.1,0.2c0,0,0,0-0.1,0h-2   c-0.1,0-0.2-0.1-0.2-0.2c0,0,0,0,0,0v-9.1c0-0.1,0.1-0.2,0.2-0.2c1.1-0.2,2.3-0.4,3.4-0.4c0.5,0,1,0,1.5,0.1c0.1,0,0.1,0.1,0.1,0.1   l-0.1,1.7c0,0,0,0.1-0.1,0.1C136.9,73.8,136.4,73.8,136,73.8z"></path>
        <path class="st4"
              d="M141,72.1c0.1,0,0.2,0.1,0.2,0.2c0,0,0,0,0,0v6c0,1.4,0.4,1.8,1.9,1.8c0.4,0,0.8,0,1.2-0.1   c0.1,0,0.2-0.1,0.2-0.2v-7.5c0-0.1,0.1-0.2,0.2-0.2c0,0,0,0,0,0h2c0.1,0,0.2,0.1,0.2,0.2c0,0,0,0,0,0v9.1c0,0.1-0.1,0.2-0.2,0.2   c-1.2,0.2-2.4,0.3-3.6,0.4c-3.2,0-4.2-0.9-4.2-3.5v-6.2c0-0.1,0.1-0.2,0.2-0.2c0,0,0,0,0,0L141,72.1z"></path>
        <path class="st4"
              d="M152.4,72c0,0.1,0,0.1,0.1,0.1c0,0,0,0,0,0h1.7c0.1,0,0.2,0.1,0.2,0.2c0,0,0,0,0,0v1.5c0,0.1-0.1,0.2-0.2,0.2   c0,0,0,0,0,0h-1.7c-0.1,0-0.1,0-0.1,0.1c0,0,0,0,0,0v7.6c0,0.1-0.1,0.2-0.2,0.2c0,0,0,0,0,0h-2c-0.1,0-0.2-0.1-0.2-0.2c0,0,0,0,0,0   V74c0-0.1,0-0.1-0.1-0.1c0,0,0,0,0,0h-1.3c-0.1,0-0.2-0.1-0.2-0.2c0,0,0,0,0,0v-1.5c0-0.1,0.1-0.2,0.2-0.2c0,0,0,0,0,0h1.3   c0.1,0,0.1,0,0.1-0.1c0,0,0,0,0,0v-0.8c0-1.3,0.5-2.7,3.2-2.7c0.5,0,1,0,1.6,0.2c0.1,0,0.2,0.1,0.1,0.2l-0.1,1.3   c0,0.1-0.1,0.1-0.2,0.1c-0.3-0.1-0.6-0.1-0.9-0.1c-0.6-0.1-1.1,0.4-1.2,1c0,0.1,0,0.2,0,0.2L152.4,72z"></path>
        <path class="st4"
              d="M155.2,81.6l0.1-1.6c0-0.1,0.1-0.1,0.1-0.1c0.7,0.1,1.4,0.2,2.1,0.2c1.3,0,1.5-0.1,1.5-1   c0-0.5-0.3-0.8-1.8-1.8c-1.4-1-2-1.5-2-2.7c0-2.1,1.1-2.8,3.5-2.8c0.8,0,1.6,0.1,2.4,0.2c0.1,0,0.1,0.1,0.1,0.1l-0.1,1.6   c0,0.1-0.1,0.1-0.1,0.1c0,0,0,0,0,0c-0.6-0.1-1.2-0.2-1.9-0.2c-1.2,0-1.5,0.1-1.5,0.8c0,0.6,0.3,0.8,1.8,1.7c1.6,1,2,1.7,2,2.8   c0,2.3-1.3,2.9-3.5,2.9c-0.9,0-1.7-0.1-2.6-0.2C155.2,81.7,155.2,81.7,155.2,81.6z"></path>
        <path class="st4"
              d="M163.6,81.6c-0.1,0-0.2-0.1-0.2-0.2V68.6c0-0.1,0.1-0.2,0.2-0.2c0,0,0,0,0,0h2c0.1,0,0.2,0.1,0.2,0.2   c0,0,0,0,0,0v3.3c0,0.1,0,0.1,0.1,0.1c0.3,0,1.2-0.1,1.8-0.1c3,0,4,1.5,4,4.7c0,3.6-0.9,5.3-4.7,5.3   C165.9,82,164.7,81.9,163.6,81.6z M165.8,80c0,0.1,0,0.2,0.1,0.2c0.3,0.1,0.7,0.1,1,0.1c1.9,0,2.2-0.8,2.2-3.4s-0.5-3.1-2.1-3.1   c-0.4,0-0.8,0-1.1,0.1c-0.1,0-0.1,0.1-0.1,0.2L165.8,80z"></path>
        <path class="st4"
              d="M174.3,70.5c-0.1,0-0.2-0.1-0.2-0.2c0,0,0,0,0,0v-1.8c0-0.1,0.1-0.2,0.2-0.2c0,0,0,0,0,0h2.1   c0.1,0,0.2,0.1,0.2,0.2c0,0,0,0,0,0v1.8c0,0.1-0.1,0.2-0.2,0.2c0,0,0,0,0,0H174.3z M174.3,81.8c-0.1,0-0.2-0.1-0.2-0.2c0,0,0,0,0,0   v-9.3c0-0.1,0.1-0.2,0.2-0.2c0,0,0,0,0,0h2c0.1,0,0.2,0.1,0.2,0.2c0,0,0,0,0,0v9.3c0,0.1-0.1,0.2-0.2,0.2c0,0,0,0,0,0L174.3,81.8z"></path>
        <path class="st4"
              d="M181.5,82c-1.5,0-2.3-0.5-2.3-2.2V68.6c0-0.1,0.1-0.2,0.2-0.2h2c0.1,0,0.2,0.1,0.2,0.2c0,0,0,0,0,0v10.8   c0,0.6,0.2,0.8,0.8,0.8h0.6c0.1,0,0.2,0,0.2,0.1c0,0,0,0,0,0l-0.1,1.2c0,0.1-0.1,0.2-0.2,0.2C182.4,81.9,181.9,82,181.5,82z"></path>
        <path class="st4"
              d="M184.3,76.9c0-3.3,1.2-5,4.2-5c0.6,0,1.3,0.1,1.6,0.1c0.1,0,0.1-0.1,0.1-0.2v-3.2c0-0.1,0.1-0.2,0.2-0.2   c0,0,0,0,0,0h2c0.1,0,0.2,0.1,0.2,0.2c0,0,0,0,0,0v12.7c0,0.1,0,0.2-0.2,0.2c-1.1,0.3-2.3,0.4-3.4,0.4   C185.2,82,184.3,80.6,184.3,76.9z M190.2,74c0-0.1,0-0.2-0.1-0.2c-0.3-0.1-0.7-0.1-1.1-0.1c-1.7,0-2.2,0.5-2.2,3.2s0.3,3.3,2.2,3.3   c0.3,0,0.7,0,1-0.1c0.1,0,0.2-0.1,0.2-0.2V74z"></path>
        <path class="st4"
              d="M197.3,72.1c0.1,0,0.2,0.1,0.2,0.2c0,0,0,0,0,0v6c0,1.4,0.4,1.8,1.8,1.8c0.4,0,0.8,0,1.2-0.1   c0.1,0,0.2-0.1,0.2-0.2v-7.5c0-0.1,0.1-0.2,0.2-0.2c0,0,0,0,0,0h2c0.1,0,0.2,0.1,0.2,0.2c0,0,0,0,0,0v9.1c0,0.1-0.1,0.2-0.2,0.2   c-1.2,0.2-2.4,0.3-3.6,0.4c-3.2,0-4.2-0.9-4.2-3.5v-6.2c0-0.1,0.1-0.2,0.2-0.2c0,0,0,0,0,0L197.3,72.1z"></path>
        <path class="st4"
              d="M211.6,81.8c-0.1,0-0.2-0.1-0.2-0.2c0,0,0,0,0,0v-6.1c0-1.4-0.3-1.7-1.8-1.7c-0.4,0-0.9,0-1.3,0.1   c-0.1,0-0.2,0.1-0.2,0.2v7.6c0,0.1-0.1,0.2-0.2,0.2c0,0,0,0,0,0h-2c-0.1,0-0.2-0.1-0.2-0.2c0,0,0,0,0,0v-9.1c0-0.1,0.1-0.2,0.2-0.2   c1.2-0.2,2.5-0.3,3.8-0.4c3.2,0,4.1,0.8,4.1,3.4v6.2c0,0.1-0.1,0.2-0.2,0.2c0,0,0,0,0,0L211.6,81.8z"></path>
        <path class="st4"
              d="M224.3,81.6c0,2.9-1.7,3.5-4.4,3.5c-1.1,0-2.3-0.2-3.4-0.5c-0.1,0-0.1-0.1-0.1-0.1l0.2-1.4   c0-0.1,0.1-0.1,0.1-0.1c0,0,0,0,0,0c0.9,0.2,1.9,0.3,2.8,0.4c2.2,0,2.3-0.6,2.3-2c0-0.1,0-0.1-0.1-0.1c-0.5,0.1-1,0.1-1.6,0.1   c-3.1,0-4.2-1-4.2-4.4c0-3.5,1.3-4.9,4.7-4.9c1.2,0,2.3,0.1,3.4,0.4c0.1,0.1,0.1,0.1,0.1,0.2L224.3,81.6z M221.8,79.5   c0.1,0,0.1-0.1,0.1-0.2V74c0-0.1,0-0.1-0.1-0.2c-0.4-0.1-0.8-0.2-1.2-0.1c-1.7,0-2.2,0.5-2.2,3s0.3,2.9,2.2,2.9   C221,79.6,221.4,79.6,221.8,79.5L221.8,79.5z"></path>
        <path class="st4"
              d="M226.3,81.6l0.1-1.6c0-0.1,0.1-0.1,0.1-0.1c0.7,0.1,1.4,0.2,2.1,0.2c1.3,0,1.5-0.1,1.5-1   c0-0.5-0.3-0.8-1.8-1.8c-1.4-1-2-1.5-2-2.7c0-2.1,1.1-2.8,3.5-2.8c0.8,0,1.6,0.1,2.4,0.2c0.1,0,0.1,0.1,0.1,0.1l-0.1,1.6   c0,0.1-0.1,0.1-0.1,0.1c0,0,0,0,0,0c-0.6-0.1-1.2-0.2-1.9-0.2c-1.2,0-1.5,0.1-1.5,0.8c0,0.6,0.3,0.8,1.8,1.7c1.6,1,2.1,1.7,2.1,2.8   c0,2.3-1.3,2.9-3.5,2.9c-0.9,0-1.7-0.1-2.6-0.2C226.4,81.7,226.3,81.7,226.3,81.6z"></path>
        <path class="st4"
              d="M246.2,81.8H243c-0.1,0-0.1-0.1-0.1-0.1c-0.4-1.7-1-4.8-1.5-7.2c0-0.1-0.1-0.1-0.2-0.1s-0.2,0-0.2,0.1   c-0.5,2.4-1.2,5.6-1.6,7.2c0,0.1-0.1,0.1-0.2,0.1h-3.3c-0.1,0-0.1-0.1-0.1-0.1c-0.5-2.1-1.9-8.2-2.2-9.4c0-0.1,0-0.2,0.1-0.2h2.3   c0.1,0,0.1,0.1,0.1,0.2c0.3,2.3,1,5.7,1.4,7.4c0,0.1,0.1,0.1,0.2,0.1c0.1,0,0.2,0,0.2-0.1c0.4-1.8,1.1-5.1,1.5-7.4   c0-0.1,0.1-0.2,0.2-0.2h3.1c0.1,0,0.1,0.1,0.1,0.2c0.4,2.3,1.1,5.7,1.5,7.4c0,0.1,0.1,0.1,0.2,0.1c0.1,0,0.2,0,0.2-0.1   c0.4-1.8,1.1-5.1,1.5-7.4c0-0.1,0.1-0.2,0.2-0.2h2.2c0.1,0,0.1,0.1,0.1,0.2c-0.2,1.2-1.7,7.2-2.3,9.4   C246.4,81.7,246.4,81.8,246.2,81.8z"></path>
        <path class="st4"
              d="M254.8,82c-3.6,0-4.7-1.9-4.7-5c0-3.2,1.4-5.1,4.4-5.1s3.8,1.6,3.8,4.2c0,1.2-0.1,1.5-0.5,1.5h-5.2   c-0.1,0-0.1,0-0.1,0.1c0,1.9,0.9,2.4,2.6,2.4c0.9,0,1.7-0.2,2.6-0.4c0.1,0,0.2,0,0.2,0.1l0.1,1.4c0,0.1-0.1,0.1-0.1,0.2   C256.9,81.8,255.8,82,254.8,82z M252.6,76.2h3.4c0.1,0,0.2,0,0.2-0.5c0-1.4-0.3-2.1-1.7-2.1c-1.6,0-2,1.1-2,2.5   C252.5,76.1,252.5,76.2,252.6,76.2z"></path>
        <path class="st4"
              d="M264.1,73.8c-0.4,0-0.7,0-1.1,0.1c-0.1,0-0.1,0.1-0.1,0.2v7.5c0,0.1-0.1,0.2-0.2,0.2h-2   c-0.1,0-0.2-0.1-0.2-0.2c0,0,0,0,0,0v-9.1c0-0.1,0.1-0.2,0.2-0.2c1.1-0.2,2.3-0.4,3.5-0.4c0.5,0,1,0,1.5,0.1c0.1,0,0.1,0.1,0.1,0.1   l-0.1,1.7c0,0,0,0.1-0.1,0.1C265.1,73.8,264.6,73.7,264.1,73.8z"></path>
        <path class="st4"
              d="M269.5,75.5c0,0.1,0.1,0.2,0.3,0.2c0.1,0,0.3,0,0.4-0.1c0.7-1,1.8-2.6,2.3-3.4c0-0.1,0.2-0.2,0.3-0.2h2.4   c0.2,0,0.3,0.1,0.2,0.2c-0.3,0.4-2.1,2.8-3.2,4c-0.1,0.1-0.1,0.1-0.1,0.2c0,0.1,0.1,0.1,0.1,0.3c0.8,1.1,2.9,4.2,3.3,4.8   c0.1,0.1,0.1,0.2-0.2,0.2H273c-0.1,0-0.2,0-0.2-0.1c-0.6-1.1-1.9-3.1-2.5-4.1c-0.1-0.1-0.3-0.2-0.5-0.2c-0.2,0-0.3,0.1-0.3,0.2v4.1   c0,0.1-0.1,0.2-0.2,0.2c0,0,0,0,0,0h-2c-0.1,0-0.2-0.1-0.2-0.2c0,0,0,0,0,0v-13c0-0.1,0.1-0.2,0.2-0.2c0,0,0,0,0,0h2   c0.1,0,0.2,0.1,0.2,0.2c0,0,0,0,0,0L269.5,75.5z"></path>
</g>
</svg>
